<svg xmlns="http://www.w3.org/2000/svg" version="1.1" xmlns:xlink="http://www.w3.org/1999/xlink" xmlns:svgjs="http://svgjs.dev/svgjs" width="1440" height="560" preserveAspectRatio="none" viewBox="0 0 1440 560"><g mask="url(&quot;#SvgjsMask1363&quot;)" fill="none"><rect width="1440" height="560" x="0" y="0" fill="url(&quot;#SvgjsLinearGradient1364&quot;)"></rect><path d="M1512 560L0 560 L0 310.05Q49.1 287.15, 72 336.25Q121.52 313.77, 144 363.3Q146.75 294.06, 216 296.81Q245.45 254.26, 288 283.71Q348.94 272.65, 360 333.59Q411.57 313.16, 432 364.74Q459.89 272.63, 552 300.53Q603.94 232.47, 672 284.41Q762.53 254.95, 792 345.48Q802.8 284.28, 864 295.09Q933.11 244.19, 984 313.3Q1030.83 288.13, 1056 334.96Q1112.18 319.14, 1128 375.33Q1158.8 334.13, 1200 364.93Q1201.65 294.59, 1272 296.24Q1341.41 245.65, 1392 315.06Q1481.03 284.09, 1512 373.12z" fill="#182f5d"></path><path d="M1512 560L0 560 L0 390.48Q62.16 332.64, 120 394.8Q159.26 314.06, 240 353.32Q287.58 328.9, 312 376.48Q364.6 357.08, 384 409.68Q427.53 381.21, 456 424.74Q496.65 345.39, 576 386.05Q625.5 315.55, 696 365.04Q726.87 323.91, 768 354.78Q870.24 337.02, 888 439.26Q889.09 368.35, 960 369.44Q1013.78 303.23, 1080 357.01Q1138.11 343.12, 1152 401.22Q1204.67 333.89, 1272 386.56Q1353.31 347.87, 1392 429.17Q1423.93 341.1, 1512 373.03z" fill="#25467d"></path><path d="M1488 560L0 560 L0 442.32Q31.75 402.07, 72 433.82Q133.97 423.79, 144 485.77Q168.2 437.97, 216 462.17Q234.63 408.8, 288 427.43Q331.96 399.39, 360 443.36Q430.56 393.92, 480 464.48Q540.24 452.72, 552 512.96Q603.76 444.73, 672 496.49Q685.97 438.46, 744 452.43Q798.7 387.13, 864 441.84Q936.16 394, 984 466.17Q1040.21 450.38, 1056 506.6Q1087.1 417.7, 1176 448.79Q1256.19 408.99, 1296 489.18Q1319.41 440.59, 1368 464Q1409.61 385.61, 1488 427.21z" fill="#356cb1"></path><path d="M1488 560L0 560 L0 566.21Q3.75 497.96, 72 501.7Q140.23 449.93, 192 518.16Q272.44 478.6, 312 559.04Q379.23 506.26, 432 573.49Q477.89 499.38, 552 545.28Q579.21 500.49, 624 527.7Q654.42 486.13, 696 516.55Q769.9 470.45, 816 544.35Q865.71 522.06, 888 571.76Q914.44 478.2, 1008 504.65Q1078.24 454.89, 1128 525.14Q1194.51 519.65, 1200 586.17Q1212.71 526.88, 1272 539.6Q1298.94 494.54, 1344 521.48Q1365.89 471.38, 1416 493.27Q1457.83 463.1, 1488 504.92z" fill="rgba(186, 243, 255, 1)"></path></g><defs><mask id="SvgjsMask1363"><rect width="1440" height="560" fill="#ffffff"></rect></mask><linearGradient x1="15.28%" y1="-39.29%" x2="84.72%" y2="139.29%" gradientUnits="userSpaceOnUse" id="SvgjsLinearGradient1364"><stop stop-color="rgba(35, 75, 108, 1)" offset="0"></stop><stop stop-color="rgba(0, 68, 154, 1)" offset="1"></stop></linearGradient></defs></svg>