<?xml version="1.0" encoding="UTF-8" standalone="no"?><!DOCTYPE svg PUBLIC "-//W3C//DTD SVG 1.1//EN" "http://www.w3.org/Graphics/SVG/1.1/DTD/svg11.dtd"><svg width="100%" height="100%" viewBox="0 0 3981 1213" version="1.1" xmlns="http://www.w3.org/2000/svg" xmlns:xlink="http://www.w3.org/1999/xlink" xml:space="preserve" xmlns:serif="http://www.serif.com/" style="fill-rule:evenodd;clip-rule:evenodd;stroke-linejoin:round;stroke-miterlimit:2;"><g id="main"><path d="M1790.46,12.958l98.625,0c65.75,0 110.264,2.542 133.542,7.625c23.299,5.059 43.729,19.013 56.917,38.875c14.666,20.834 22,54.167 22,100c-0,41.667 -5.181,69.681 -15.542,84.042c-10.361,14.361 -30.778,22.972 -61.25,25.833c27.583,6.834 46.125,15.986 55.625,27.459c8.176,9.096 14.226,19.9 17.708,31.625c2.278,9.583 3.431,35.972 3.459,79.166l-0,141.334l-129.417,-0l0,-178.042c0,-28.667 -2.264,-46.431 -6.792,-53.292c-4.5,-6.833 -16.375,-10.25 -35.541,-10.25l-0,241.667l-139.334,0l0,-536.042Zm139.334,91.667l-0,119.167c15.666,-0 26.639,-2.153 32.916,-6.459c6.292,-4.166 9.417,-18.25 9.417,-41.875l0,-29.166c0,-17 -3.028,-28.111 -9.083,-33.334c-6.056,-5.222 -17.139,-8 -33.25,-8.333Z" style="fill:#fff;fill-rule:nonzero;"/><path d="M2155.5,12.958l232.333,0l0,107.375l-93,0l0,101.625l87.042,0l0,101.917l-87.042,0l0,117.833l102.25,0l0,107.25l-241.666,0l0.083,-536Z" style="fill:#fff;fill-rule:nonzero;"/><path d="M2678,12.958l79.667,535.834l-142.375,-0l-7.5,-96.334l-50,0l-8.334,96.334l-143.916,-0l71.083,-535.834l201.375,0Zm-73.833,344.709c-7.084,-60.723 -14.167,-135.723 -21.25,-225c-14.167,102.639 -23.07,177.639 -26.709,225l47.959,-0Z" style="fill:#fff;fill-rule:nonzero;"/><path d="M2781.33,12.958l104.167,0c67.306,0 112.819,3.084 136.542,9.25c23.722,6.167 41.777,16.32 54.166,30.459c11.92,13.286 19.938,29.612 23.167,47.166c3.194,17.445 4.792,51.528 4.792,102.25l-0,187.5c-0,48.111 -2.264,80.264 -6.792,96.459c-3.677,14.869 -11.962,28.202 -23.667,38.083c-12.186,9.587 -26.462,16.169 -41.666,19.208c-16.667,3.611 -41.598,5.431 -74.792,5.459l-175.917,-0l0,-535.834Zm139.5,91.667l0,352.458c20.084,0 32.445,-4.014 37.084,-12.041c4.639,-8.028 6.902,-29.834 6.791,-65.417l0,-208.333c0,-24.278 -0.777,-39.834 -2.333,-46.667c-1.182,-6.318 -5.045,-11.823 -10.583,-15.083c-5.542,-3.167 -15.875,-4.917 -30.959,-4.917Z" style="fill:#fff;fill-rule:nonzero;"/><path d="M2085.67,794.542l-129.417,-0l0,-39.709c0,-18.555 -1.653,-30.361 -4.958,-35.416c-3.785,-5.336 -10.155,-8.25 -16.667,-7.625c-7.747,-0.338 -15.08,3.625 -19.042,10.291c-4.277,6.834 -6.43,17.209 -6.458,31.125c0,17.875 2.417,31.375 7.25,40.417c4.833,9.042 17.75,19.958 39.375,32.75c62.028,36.833 101.097,67.042 117.208,90.625c16.111,23.583 24.167,61.653 24.167,114.208c0,38.167 -4.472,66.292 -13.417,84.375c-8.944,18.084 -26.208,33.25 -51.791,45.5c-27.978,12.807 -58.486,19.145 -89.25,18.542c-37.278,0 -69.098,-7.056 -95.459,-21.167c-26.361,-14.111 -43.625,-32.152 -51.791,-54.125c-8.056,-21.833 -12.084,-52.833 -12.084,-93l0,-35.083l129.167,0l0,65.208c0,20.084 1.792,32.959 5.458,38.709c3.667,5.75 10.084,8.625 19.334,8.625c8.418,0.501 16.454,-3.71 20.833,-10.917c4.5,-7.292 6.792,-18.125 6.792,-32.458c-0,-31.528 -4.306,-52.153 -12.917,-61.875c-8.611,-9.723 -30.347,-25.945 -65.208,-48.667c-34.611,-22.944 -57.556,-39.611 -68.834,-50c-12.398,-12.094 -21.949,-26.798 -27.958,-43.042c-7.417,-18.277 -11.111,-41.666 -11.083,-70.166c-0,-41.056 5.236,-71.056 15.708,-90c10.472,-18.945 27.403,-33.792 50.792,-44.542c23.389,-10.667 51.639,-16.014 84.75,-16.042c36.111,0 66.944,5.848 92.5,17.542c25.555,11.694 42.43,26.417 50.625,44.167c8.333,17.777 12.5,47.958 12.5,90.541l-0.125,21.209Z" style="fill:#fff;fill-rule:nonzero;"/><path d="M2459.33,946.292c0,53.833 -1.277,91.958 -3.833,114.375c-5.105,46.24 -35.001,86.208 -77.917,104.166c-25.181,10.36 -52.236,15.396 -79.458,14.792c-26.448,0.362 -52.711,-4.48 -77.292,-14.25c-43.42,-17.341 -74.105,-57.03 -79.958,-103.417c-2.639,-22.027 -4.028,-60.639 -4.167,-115.833l0,-91.5c0,-53.833 1.264,-91.944 3.792,-114.333c5.096,-46.257 35.016,-86.235 77.958,-104.167c25.241,-10.408 52.372,-15.459 79.667,-14.833c26.437,-0.414 52.7,4.371 77.292,14.083c43.42,17.331 74.097,57.029 79.916,103.417c2.778,22.027 4.167,60.639 4.167,115.833l-0.167,91.667Zm-139.333,-176.25c0,-25 -1.389,-40.931 -4.167,-47.792c-2.718,-6.865 -9.69,-11.143 -17.041,-10.458c-6.621,-0.316 -12.947,2.847 -16.667,8.333c-3.889,5.556 -5.819,22.153 -5.792,49.792l0,250.208c0,31.139 1.264,50.347 3.792,57.625c2.542,7.25 8.333,10.917 17.708,10.917c8.27,0.823 16.005,-4.487 18.209,-12.5c2.777,-8.334 4.166,-28.306 4.166,-59.917l-0.208,-246.208Z" style="fill:#fff;fill-rule:nonzero;"/><path d="M2836.62,865.708l-139.333,0l-0,-93.125c-0,-27.083 -1.5,-43.986 -4.5,-50.708c-2.959,-6.708 -9.542,-10.083 -19.667,-10.083c-11.5,-0 -18.75,4.166 -21.833,12.25c-3.084,8.083 -4.667,25.833 -4.667,52.958l0,248.875c0,26.056 1.556,43.056 4.667,51c3.083,7.917 10.041,11.917 20.833,11.917c10.792,-0 17.167,-4.167 20.375,-11.959c3.208,-7.791 4.792,-26.666 4.792,-56.083l-0,-67.333l139.333,-0l0,20.833c0,55.556 -3.917,94.889 -11.75,118c-7.833,23.111 -25.153,43.458 -51.958,61.042c-26.834,17.555 -59.875,26.333 -99.125,26.333c-40.834,0 -74.486,-7.389 -100.959,-22.167c-26.472,-14.777 -44.014,-35.305 -52.625,-61.583c-8.583,-26.111 -12.889,-65.431 -12.916,-117.958l-0,-156.625c-0.438,-29.017 0.954,-58.033 4.166,-86.875c3.022,-20.305 11.168,-39.508 23.667,-55.792c14.129,-18.659 32.97,-33.228 54.583,-42.208c25.352,-10.555 52.629,-15.706 80.084,-15.125c41.055,-0 74.93,7.93 101.625,23.791c26.694,15.861 44.236,35.639 52.625,59.334c8.333,23.694 12.5,60.541 12.5,110.541l0.083,50.75Z" style="fill:#fff;fill-rule:nonzero;"/><rect x="2886.58" y="632.375" width="139.333" height="535.833" style="fill:#fff;fill-rule:nonzero;"/><path d="M3081.83,632.375l232.375,0l0,107.25l-93,0l0,101.583l87.125,0l0,101.959l-87.125,-0l0,117.791l102.25,0l0,107.25l-241.666,0l0.041,-535.833Z" style="fill:#fff;fill-rule:nonzero;"/><path d="M3635.21,632.375l0,107.25l-82.708,0l0,428.583l-139.333,0l-0,-428.583l-82.417,0l0,-107.25l304.458,0Z" style="fill:#fff;fill-rule:nonzero;"/><path d="M3980.75,632.375l-101.583,341.875l-0,193.958l-129.167,0l0,-193.958l-97.958,-341.875l127.958,0c20.028,104.583 31.319,174.972 33.875,211.167c7.694,-57.167 20.625,-127.556 38.792,-211.167l128.083,-0Z" style="fill:#fff;fill-rule:nonzero;"/><rect x="572.708" y="155.125" width="487.167" height="46.375" style="fill:#fff;"/><path d="M572.708,1001.83l487.125,0l0,-762.625l-487.125,0l0,762.625Zm281.459,-697.208l131.958,0l0,131.917l-131.958,-0l-0,-131.917Zm-227.625,172.542l131.791,-0l0,131.625l-132,-0l0.209,-131.625Zm-0,252.25l131.791,-0l0,131.958l-132,0l0.209,-131.958Z" style="fill:#fff;fill-rule:nonzero;"/><path d="M572.708,1111.79c0,55.002 45.248,100.268 100.25,100.291l286.625,0c55.003,-0.023 100.25,-45.289 100.25,-100.291l0,-47.625l-487.125,-0l0,47.625Z" style="fill:#fff;fill-rule:nonzero;"/><path d="M959.584,-0l-286.626,-0c-54.995,-0 -100.25,45.254 -100.25,100.25c0,0.069 0,0.139 0,0.208l0,17.167l487.125,0l0,-17.167c0,-0.069 0.001,-0.139 0.001,-0.208c-0,-54.996 -45.255,-100.25 -100.25,-100.25Z" style="fill:#fff;fill-rule:nonzero;"/><path d="M1145.38,1064.17l-0,47.625c-0,55.018 45.273,100.291 100.292,100.291c0.055,0 0.111,0 0.166,0l286.625,0c55.003,-0.023 100.25,-45.289 100.25,-100.291l0,-47.625l-487.333,-0Z" style="fill:#fff;fill-rule:nonzero;"/><path d="M1532.29,-0l-286.459,0c-0.055,-0 -0.111,-0 -0.166,-0c-55.019,-0 -100.292,45.273 -100.292,100.292c-0,0.055 -0,0.111 -0,0.166l-0,36l487.167,0l-0,-36c-0,-0.069 -0,-0.139 -0,-0.208c-0,-54.996 -45.255,-100.25 -100.25,-100.25Z" style="fill:#fff;fill-rule:nonzero;"/><path d="M1145.38,930.792l487.167,-0l-0,-740.875l-487.167,-0l0,740.875Zm297.25,-704.625l131.917,-0l-0,131.916l-131.917,0l0,-131.916Zm0,314.625l131.917,-0l-0,131.916l-131.917,0l0,-131.916Zm-230.542,-169.5l131.959,-0l-0,131.916l-131.959,0l0,-131.916Zm0,318.958l131.959,-0l-0,131.917l-131.959,-0l0,-131.917Z" style="fill:#fff;fill-rule:nonzero;"/><path d="M0,1111.79c-0,55.002 45.247,100.268 100.25,100.291l286.625,0c55.018,0 100.292,-45.273 100.292,-100.291l-0,-57.75l-487.167,-0l0,57.75Z" style="fill:#fff;fill-rule:nonzero;"/><path d="M0,943.833l487.167,0l-0,-742.333l-487.167,0l0,742.333Zm303.042,-533.333l120.333,0l0,120.333l-120.333,0l-0,-120.333Zm-0,159.5l120.333,0l0,120.333l-120.333,0l-0,-120.333Zm-239.25,-297.458l120.333,-0l-0,120.333l-120.333,0l-0,-120.333Zm-0,462.5l120.333,-0l-0,120.333l-120.333,0l-0,-120.333Z" style="fill:#fff;fill-rule:nonzero;"/><path d="M386.875,-0l-286.625,-0c-54.996,-0 -100.25,45.254 -100.25,100.25c-0,0.069 -0,0.139 -0,0.208l0,54.667l487.167,0l-0,-54.667c-0,-0.055 -0,-0.111 -0,-0.166c-0,-55.019 -45.273,-100.292 -100.292,-100.292Z" style="fill:#fff;fill-rule:nonzero;"/></g></svg>